<?xml version="1.0" encoding="UTF-8" standalone="no"?>
<!-- Created with Inkscape (http://www.inkscape.org/) -->

<svg
   xmlns:dc="http://purl.org/dc/elements/1.1/"
   xmlns:cc="http://creativecommons.org/ns#"
   xmlns:rdf="http://www.w3.org/1999/02/22-rdf-syntax-ns#"
   xmlns:svg="http://www.w3.org/2000/svg"
   xmlns="http://www.w3.org/2000/svg"
   version="1.1"
   width="45.998871"
   height="46"
   id="svg4088">
  <defs
     id="defs4090" />
  <metadata
     id="metadata4093">
    <rdf:RDF>
      <cc:Work
         rdf:about="">
        <dc:format>image/svg+xml</dc:format>
        <dc:type
           rdf:resource="http://purl.org/dc/dcmitype/StillImage" />
        <dc:title></dc:title>
      </cc:Work>
    </rdf:RDF>
  </metadata>
  <g
     transform="translate(-327.00057,-509.36218)"
     id="layer1">
    <path
       d="m 350.00058,553.8401 c -11.70465,0 -21.22715,-9.63518 -21.22715,-21.4782 0,-11.84247 9.5225,-21.47764 21.22715,-21.47764 11.70294,0 21.226,9.63517 21.226,21.47764 0,11.84302 -9.52306,21.4782 -21.226,21.4782 z"
       id="path3651"
       style="fill:#00dc00;fill-opacity:1" />
    <path
       d="m 337.00566,550.58704 c -26.20712,-23.47322 48.41707,-25.51409 28.07883,-2.18206 -7.14052,8.34295 -19.73747,9.32122 -28.07883,2.18206 z"
       id="path3653"
       style="fill:#00b400;fill-opacity:1" />
    <path
       d="m 350.00001,512.1169 c 11.16342,0 20.24416,9.08185 20.24416,20.24472 0,11.164 -9.08074,20.24585 -20.24416,20.24585 -11.16344,0 -20.24473,-9.08185 -20.24473,-20.24585 0,-11.16287 9.08129,-20.24472 20.24473,-20.24472 m 0,-2.75472 c -12.7023,0 -22.99944,10.29714 -22.99944,23 0,12.70286 10.29714,23 22.99944,23 12.70285,0 22.99943,-10.29714 22.99943,-23 -9e-4,-12.70286 -10.29715,-23 -22.99943,-23 l 0,0 z"
       id="path3655"
       style="fill:#000000;fill-opacity:1" />
    <path
       d="m 358.57144,523.79075 v -3.42857 h -17.14286 v 3.42857 h -5.14286 v 3.42857 c 0,2.84014 2.30228,5.14286 5.14286,5.14286 0.53786,0 1.056,-0.0827 1.54329,-0.23572 1.23685,1.76829 3.12342,3.048 5.31385,3.49286 v 5.31429 h -1.71428 c -1.89344,0 -3.42857,1.53514 -3.42857,3.42857 h 13.71428 c 0,-1.89343 -1.53515,-3.42857 -3.42857,-3.42857 h -1.71429 v -5.31429 c 2.19043,-0.44486 4.077,-1.72457 5.31386,-3.49286 0.48729,0.153 1.00543,0.23572 1.54329,0.23572 2.84056,0 5.14285,-2.30272 5.14285,-5.14286 v -3.42857 h -5.14285 z m -17.14286,6.53571 c -1.71343,0 -3.10714,-1.39371 -3.10714,-3.10714 v -1.71429 h 3.10714 v 1.71429 c 0,1.07658 0.19886,2.10643 0.56142,3.05529 -0.18213,0.0335 -0.36942,0.0518 -0.56142,0.0518 z m 20.25,-3.10714 c 0,1.71343 -1.39371,3.10714 -3.10714,3.10714 -0.19157,0 -0.37929,-0.0184 -0.56144,-0.0518 0.36215,-0.94929 0.56144,-1.97915 0.56144,-3.05529 v -1.71429 h 3.10714 v 1.71429 z"
       id="path4"
       style="fill:#ffffff" />
  </g>
</svg>
