<?xml version="1.0" encoding="UTF-8" standalone="no"?>
<!-- Created with Inkscape (http://www.inkscape.org/) -->
<svg id="svg5412" xmlns:rdf="http://www.w3.org/1999/02/22-rdf-syntax-ns#" xmlns="http://www.w3.org/2000/svg" height="46" width="45.999" version="1.1" xmlns:cc="http://creativecommons.org/ns#" xmlns:dc="http://purl.org/dc/elements/1.1/">
 <metadata id="metadata5417">
  <rdf:RDF>
   <cc:Work rdf:about="">
    <dc:format>image/svg+xml</dc:format>
    <dc:type rdf:resource="http://purl.org/dc/dcmitype/StillImage"/>
    <dc:title/>
   </cc:Work>
  </rdf:RDF>
 </metadata>
 <path id="path3181" fill="#00dc00" d="m22.999,44.438c11.808,0,21.415-9.6071,21.415-21.416,0-11.808-9.6066-21.415-21.415-21.415-11.806,0-21.414,9.6072-21.414,21.415,0,11.809,9.6072,21.416,21.414,21.416z"/>
 <path id="path3183" fill="#00b400" d="m10.005,41.238c-26.207-23.473,48.417-25.514,28.079-2.182-7.1405,8.3429-19.737,9.3212-28.079,2.182z"/>
 <path id="path3187" fill="#000" d="m22.999,2.7378c-11.163,0-20.244,9.0819-20.244,20.245,0,11.164,9.0807,20.246,20.244,20.246s20.245-9.0819,20.245-20.246c0-11.163-9.0813-20.245-20.245-20.245m0-2.7547c12.702,0,22.999,10.297,22.999,23s-10.297,23-22.999,23c-12.703,0-22.999-10.297-22.999-23,0.000898-12.703,10.297-23,22.999-23z"/>
 <g id="g2996" fill="#FFF" transform="matrix(0.42048256,0,0,0.42048256,8.4423008,-403.7579)">
  <path id="path4" d="m60.621,1021.6v5.303h-5.303l-6.697-6.697-6.697,6.697h-5.303v-5.303l6.697-6.697-6.697-6.697v-5.303h5.303l6.697,6.697,6.697-6.697h5.303v5.303l-6.697,6.697,6.697,6.697z"/>
  <path id="path6" d="m26.621,1042.9c-0.52,0-1.032-0.203-1.415-0.586l-15.414-15.4h-7.172c-1.105,0-2-0.895-2-2v-20c0-1.105,0.895-2,2-2h7.172l15.414-15.39c0.572-0.572,1.432-0.743,2.18-0.434s1.235,1.039,1.235,1.848v52c0,0.809-0.487,1.538-1.235,1.848-0.247,0.102-0.507,0.152-0.765,0.152z"/>
 </g>
</svg>
