<?xml version="1.0" encoding="UTF-8" standalone="no"?>
<!-- Created with Inkscape (http://www.inkscape.org/) -->
<svg id="svg2" xmlns:rdf="http://www.w3.org/1999/02/22-rdf-syntax-ns#" xmlns="http://www.w3.org/2000/svg" height="31.21" width="32" version="1.1" xmlns:cc="http://creativecommons.org/ns#" xmlns:dc="http://purl.org/dc/elements/1.1/" viewBox="0 0 32 31.209683">
 <metadata id="metadata10">
  <rdf:RDF>
   <cc:Work rdf:about="">
    <dc:format>image/svg+xml</dc:format>
    <dc:type rdf:resource="http://purl.org/dc/dcmitype/StillImage"/>
    <dc:title/>
   </cc:Work>
  </rdf:RDF>
 </metadata>
 <path id="path4" fill="#FFF" d="M15.999,0c-8.8355,0-15.999,7.1639-15.999,16.001,0,7.069,4.5834,13.066,10.942,15.181,0.80082,0.1481,1.0921-0.34462,1.0921-0.77005,0-0.37908-0.01395-1.3846-0.02092-2.7212-4.4509,0.9678-5.3899-2.1452-5.3899-2.1452-0.72779-1.8482-1.7768-2.3397-1.7768-2.3397-1.4527-0.992,0.11036-0.97272,0.11036-0.97272,1.6057,0.11364,2.4509,1.6484,2.4509,1.6484,1.4269,2.4451,3.7452,1.7374,4.6564,1.3305,0.14482-1.0359,0.55918-1.7395,1.0158-2.1403-3.5524-0.40369-7.2874-1.7764-7.2874-7.9073,0-1.7473,0.62318-3.1758,1.6464-4.2946-0.16369-0.40287-0.71385-2.0295,0.15713-4.2334,0,0,1.3432-0.42995,4.4004,1.6414,1.2755-0.35651,2.6445-0.53456,4.0053-0.5399,1.3588,0.0057,2.7282,0.18338,4.0053,0.5399,3.0552-2.0714,4.3963-1.6414,4.3963-1.6414,0.87303,2.2039,0.32328,3.8306,0.15918,4.2334,1.0256,1.1188,1.6443,2.5473,1.6443,4.2946,0,6.1452-3.7403,7.4991-7.3046,7.8937,0.57354,0.49436,1.0855,1.4728,1.0855,2.9657,0,2.1378-0.01928,3.863-0.01928,4.3877,0,0.42872,0.28759,0.92718,1.0999,0.76841,6.353-2.12,10.933-8.113,10.933-15.18,0-8.8371-7.163-16.001-16.001-16.001z"/>
</svg>
