<?xml version="1.0" encoding="UTF-8" standalone="no"?>
<!-- Created with Inkscape (http://www.inkscape.org/) -->
<svg id="svg4687" xmlns:rdf="http://www.w3.org/1999/02/22-rdf-syntax-ns#" xmlns="http://www.w3.org/2000/svg" height="46.002" width="288.86" version="1.1" xmlns:cc="http://creativecommons.org/ns#" xmlns:dc="http://purl.org/dc/elements/1.1/">
 <metadata id="metadata4692">
  <rdf:RDF>
   <cc:Work rdf:about="">
    <dc:format>image/svg+xml</dc:format>
    <dc:type rdf:resource="http://purl.org/dc/dcmitype/StillImage"/>
    <dc:title/>
   </cc:Work>
  </rdf:RDF>
 </metadata>
 <g id="layer1" transform="translate(-205.5606,-509.34921)">
  <g id="g6690" stroke="#000" transform="translate(-142.47065,398.32117)">
   <g id="g6692" fill="#FFF">
    <rect id="rect6694" height="9" width="9" y="116.04" x="348.54"/>
    <rect id="rect6696" height="9" width="9" y="116.04" x="357.54"/>
    <rect id="rect6698" height="9" width="9" y="116.04" x="366.54"/>
    <rect id="rect6700" height="9" width="9" y="125.04" x="357.54"/>
    <rect id="rect6702" height="9" width="9" y="134.04" x="357.54"/>
    <rect id="rect6704" height="9" width="9" y="143.04" x="357.54"/>
   </g>
   <g id="g6706" fill="#FFF">
    <path id="path6708" style="baseline-shift:baseline;block-progression:tb;color:#000000;direction:ltr;text-indent:0;text-align:start;enable-background:accumulate;text-transform:none;" d="m403.51,116.04c-0.53618,0-0.97059,0.43441-0.97059,0.97059v7.0588c0,0.53618,0.43441,0.97059,0.97059,0.97059h7.0588c0.53618,0,0.97059-0.43441,0.97059-0.97059v-7.0588c0-0.53618-0.43441-0.97059-0.97059-0.97059z" fill-rule="nonzero" stroke-width="1"/>
    <path id="path6710" style="baseline-shift:baseline;block-progression:tb;color:#000000;direction:ltr;text-indent:0;text-align:start;enable-background:accumulate;text-transform:none;" d="m412.51,116.04c-0.53618,0-0.97059,0.43441-0.97059,0.97059v7.0588c0,0.53618,0.43441,0.97059,0.97059,0.97059h7.0588c0.53618,0,0.97059-0.43441,0.97059-0.97059v-7.0588c0-0.53618-0.43441-0.97059-0.97059-0.97059z" fill-rule="nonzero" stroke-width="1"/>
    <path id="path6712" style="baseline-shift:baseline;block-progression:tb;color:#000000;direction:ltr;text-indent:0;text-align:start;enable-background:accumulate;text-transform:none;" d="m421.51,116.04c-0.53618,0-0.97059,0.43441-0.97059,0.97059v7.0588c0,0.53618,0.43441,0.97059,0.97059,0.97059h7.0588c0.53618,0,0.97059-0.43441,0.97059-0.97059v-7.0588c0-0.53618-0.43441-0.97059-0.97059-0.97059z" fill-rule="nonzero" stroke-width="1"/>
    <path id="path6714" style="baseline-shift:baseline;block-progression:tb;color:#000000;direction:ltr;text-indent:0;text-align:start;enable-background:accumulate;text-transform:none;" d="m412.51,125.04c-0.53618,0-0.97059,0.43441-0.97059,0.97059v7.0588c0,0.53618,0.43441,0.97059,0.97059,0.97059h7.0588c0.53618,0,0.97059-0.43441,0.97059-0.97059v-7.0588c0-0.53618-0.43441-0.97059-0.97059-0.97059z" fill-rule="nonzero" stroke-width="1"/>
    <path id="path6716" style="baseline-shift:baseline;block-progression:tb;color:#000000;direction:ltr;text-indent:0;text-align:start;enable-background:accumulate;text-transform:none;" d="m412.51,134.04c-0.53618,0-0.97059,0.43441-0.97059,0.97059v7.0588c0,0.53618,0.43441,0.97059,0.97059,0.97059h7.0588c0.53618,0,0.97059-0.43441,0.97059-0.97059v-7.0588c0-0.53618-0.43441-0.97059-0.97059-0.97059z" fill-rule="nonzero" stroke-width="1"/>
    <path id="path6718" style="baseline-shift:baseline;block-progression:tb;color:#000000;direction:ltr;text-indent:0;text-align:start;enable-background:accumulate;text-transform:none;" d="m412.51,143.04c-0.53618,0-0.97059,0.43441-0.97059,0.97059v7.0588c0,0.53618,0.43441,0.97059,0.97059,0.97059h7.0588c0.53618,0,0.97059-0.43441,0.97059-0.97059v-7.0588c0-0.53618-0.43441-0.97059-0.97059-0.97059z" fill-rule="nonzero" stroke-width="1"/>
    <path id="path6720" style="baseline-shift:baseline;block-progression:tb;color:#000000;direction:ltr;text-indent:0;text-align:start;enable-background:accumulate;text-transform:none;" d="m403.85,116.48c-0.48414,0-0.87639,0.39225-0.87639,0.87639v6.3737c0,0.48414,0.39225,0.87639,0.87639,0.87639h6.3737c0.48414,0,0.87639-0.39225,0.87639-0.87639v-6.3737c0-0.48414-0.39225-0.87639-0.87639-0.87639z" fill-rule="nonzero" stroke-width="1"/>
    <path id="path6722" style="baseline-shift:baseline;block-progression:tb;color:#000000;direction:ltr;text-indent:0;text-align:start;enable-background:accumulate;text-transform:none;" d="m412.85,116.48c-0.48414,0-0.87639,0.39225-0.87639,0.87639v6.3737c0,0.48414,0.39225,0.87639,0.87639,0.87639h6.3737c0.48414,0,0.87639-0.39225,0.87639-0.87639v-6.3737c0-0.48414-0.39225-0.87639-0.87639-0.87639z" fill-rule="nonzero" stroke-width="1"/>
    <path id="path6724" style="baseline-shift:baseline;block-progression:tb;color:#000000;direction:ltr;text-indent:0;text-align:start;enable-background:accumulate;text-transform:none;" d="m421.85,116.48c-0.48414,0-0.87639,0.39225-0.87639,0.87639v6.3737c0,0.48414,0.39225,0.87639,0.87639,0.87639h6.3737c0.48414,0,0.87639-0.39225,0.87639-0.87639v-6.3737c0-0.48414-0.39225-0.87639-0.87639-0.87639z" fill-rule="nonzero" stroke-width="1"/>
    <path id="path6726" style="baseline-shift:baseline;block-progression:tb;color:#000000;direction:ltr;text-indent:0;text-align:start;enable-background:accumulate;text-transform:none;" d="m412.85,125.48c-0.48414,0-0.87639,0.39225-0.87639,0.87639v6.3737c0,0.48414,0.39225,0.87639,0.87639,0.87639h6.3737c0.48414,0,0.87639-0.39225,0.87639-0.87639v-6.3737c0-0.48414-0.39225-0.87639-0.87639-0.87639z" fill-rule="nonzero" stroke-width="1"/>
    <path id="path6728" style="baseline-shift:baseline;block-progression:tb;color:#000000;direction:ltr;text-indent:0;text-align:start;enable-background:accumulate;text-transform:none;" d="m412.85,134.48c-0.48414,0-0.87639,0.39225-0.87639,0.87639v6.3737c0,0.48414,0.39225,0.87639,0.87639,0.87639h6.3737c0.48414,0,0.87639-0.39225,0.87639-0.87639v-6.3737c0-0.48414-0.39225-0.87639-0.87639-0.87639z" fill-rule="nonzero" stroke-width="1"/>
    <path id="path6730" style="baseline-shift:baseline;block-progression:tb;color:#000000;direction:ltr;text-indent:0;text-align:start;enable-background:accumulate;text-transform:none;" d="m412.85,143.48c-0.48414,0-0.87639,0.39225-0.87639,0.87639v6.3737c0,0.48414,0.39225,0.87639,0.87639,0.87639h6.3737c0.48414,0,0.87639-0.39225,0.87639-0.87639v-6.3737c0-0.48414-0.39225-0.87639-0.87639-0.87639z" fill-rule="nonzero" stroke-width="1"/>
    <rect id="rect6732" height="9" width="9" y="116.04" x="402.54"/>
    <rect id="rect6734" height="9" width="9" y="116.04" x="411.54"/>
    <rect id="rect6736" height="9" width="9" y="116.04" x="420.54"/>
    <rect id="rect6738" height="9" width="9" y="125.04" x="411.54"/>
    <rect id="rect6740" height="9" width="9" y="134.04" x="411.54"/>
    <rect id="rect6742" height="9" width="9" y="143.04" x="411.54"/>
   </g>
   <g id="g6744" fill="#FFF">
    <path id="path6746" style="baseline-shift:baseline;block-progression:tb;color:#000000;direction:ltr;text-indent:0;text-align:start;enable-background:accumulate;text-transform:none;" d="m466.51,116.04c-0.53618,0-0.97059,0.43441-0.97059,0.97059v7.0588c0,0.53618,0.43441,0.97059,0.97059,0.97059h7.0588c0.53618,0,0.97059-0.43441,0.97059-0.97059v-7.0588c0-0.53618-0.43441-0.97059-0.97059-0.97059z" fill-rule="nonzero" stroke-width="1"/>
    <path id="path6748" style="baseline-shift:baseline;block-progression:tb;color:#000000;direction:ltr;text-indent:0;text-align:start;enable-background:accumulate;text-transform:none;" d="m466.51,125.04c-0.53618,0-0.97059,0.43441-0.97059,0.97059v7.0588c0,0.53618,0.43441,0.97059,0.97059,0.97059h7.0588c0.53618,0,0.97059-0.43441,0.97059-0.97059v-7.0588c0-0.53618-0.43441-0.97059-0.97059-0.97059z" fill-rule="nonzero" stroke-width="1"/>
    <path id="path6750" style="baseline-shift:baseline;block-progression:tb;color:#000000;direction:ltr;text-indent:0;text-align:start;enable-background:accumulate;text-transform:none;" d="m466.51,134.04c-0.53618,0-0.97059,0.43441-0.97059,0.97059v7.0588c0,0.53618,0.43441,0.97059,0.97059,0.97059h7.0588c0.53618,0,0.97059-0.43441,0.97059-0.97059v-7.0588c0-0.53618-0.43441-0.97059-0.97059-0.97059z" fill-rule="nonzero" stroke-width="1"/>
    <path id="path6752" style="baseline-shift:baseline;block-progression:tb;color:#000000;direction:ltr;text-indent:0;text-align:start;enable-background:accumulate;text-transform:none;" d="m466.51,143.04c-0.53618,0-0.97059,0.43441-0.97059,0.97059v7.0588c0,0.53618,0.43441,0.97059,0.97059,0.97059h7.0588c0.53618,0,0.97059-0.43441,0.97059-0.97059v-7.0588c0-0.53618-0.43441-0.97059-0.97059-0.97059z" fill-rule="nonzero" stroke-width="1"/>
    <path id="path6754" style="baseline-shift:baseline;block-progression:tb;color:#000000;direction:ltr;text-indent:0;text-align:start;enable-background:accumulate;text-transform:none;" d="m466.85,116.48c-0.48414,0-0.87639,0.39225-0.87639,0.87639v6.3737c0,0.48414,0.39225,0.87639,0.87639,0.87639h6.3737c0.48414,0,0.87639-0.39225,0.87639-0.87639v-6.3737c0-0.48414-0.39225-0.87639-0.87639-0.87639z" fill-rule="nonzero" stroke-width="1"/>
    <path id="path6756" style="baseline-shift:baseline;block-progression:tb;color:#000000;direction:ltr;text-indent:0;text-align:start;enable-background:accumulate;text-transform:none;" d="m466.85,125.48c-0.48414,0-0.87639,0.39225-0.87639,0.87639v6.3737c0,0.48414,0.39225,0.87639,0.87639,0.87639h6.3737c0.48414,0,0.87639-0.39225,0.87639-0.87639v-6.3737c0-0.48414-0.39225-0.87639-0.87639-0.87639z" fill-rule="nonzero" stroke-width="1"/>
    <path id="path6758" style="baseline-shift:baseline;block-progression:tb;color:#000000;direction:ltr;text-indent:0;text-align:start;enable-background:accumulate;text-transform:none;" d="m466.85,134.48c-0.48414,0-0.87639,0.39225-0.87639,0.87639v6.3737c0,0.48414,0.39225,0.87639,0.87639,0.87639h6.3737c0.48414,0,0.87639-0.39225,0.87639-0.87639v-6.3737c0-0.48414-0.39225-0.87639-0.87639-0.87639z" fill-rule="nonzero" stroke-width="1"/>
    <path id="path6760" style="baseline-shift:baseline;block-progression:tb;color:#000000;direction:ltr;text-indent:0;text-align:start;enable-background:accumulate;text-transform:none;" d="m466.85,143.48c-0.48414,0-0.87639,0.39225-0.87639,0.87639v6.3737c0,0.48414,0.39225,0.87639,0.87639,0.87639h6.3737c0.48414,0,0.87639-0.39225,0.87639-0.87639v-6.3737c0-0.48414-0.39225-0.87639-0.87639-0.87639z" fill-rule="nonzero" stroke-width="1"/>
    <rect id="rect6762" height="9" width="9" y="116.04" x="465.54"/>
    <rect id="rect6764" height="9" width="9" y="125.04" x="465.54"/>
    <rect id="rect6766" height="9" width="9" y="134.04" x="465.54"/>
    <rect id="rect6768" height="9" width="9" y="143.04" x="465.54"/>
   </g>
   <g id="g6770" fill="#FFF">
    <rect id="rect6772" height="9" width="9" y="143.04" x="389.04"/>
    <rect id="rect6774" height="9" width="9" y="116.04" x="380.04"/>
    <rect id="rect6776" height="9" width="9" y="116.04" x="389.04"/>
    <rect id="rect6778" height="9" width="9" y="125.04" x="380.04"/>
    <rect id="rect6780" height="9" width="9" y="134.04" x="380.04"/>
    <rect id="rect6782" height="9" width="9" y="143.04" x="380.04"/>
    <rect id="rect6784" height="9" width="9" y="129.54" x="389.04"/>
   </g>
   <g id="g6786" fill="#FFF">
    <rect id="rect6788" height="9" width="9" y="116.04" x="452.04"/>
    <rect id="rect6790" height="9" width="9" y="116.04" x="434.04"/>
    <rect id="rect6792" height="9" width="9" y="116.04" x="443.04"/>
    <rect id="rect6794" height="9" width="9" y="125.04" x="434.04"/>
    <rect id="rect6796" height="9" width="9" y="134.04" x="434.04"/>
    <rect id="rect6798" height="9" width="9" y="143.04" x="434.04"/>
    <rect id="rect6800" height="9" width="9" y="125.04" x="452.04"/>
    <rect id="rect6802" height="9" width="9" y="134.04" x="443.04"/>
    <rect id="rect6804" height="9" width="9" y="143.04" x="452.04"/>
   </g>
   <g id="g6806" fill="#FFF">
    <rect id="rect6808" height="9" width="9" y="116.04" x="497.04"/>
    <rect id="rect6810" height="9" width="9" y="116.04" x="479.04"/>
    <rect id="rect6812" height="9" width="9" y="116.04" x="488.04"/>
    <rect id="rect6814" height="9" width="9" y="125.04" x="479.04"/>
    <rect id="rect6816" height="9" width="9" y="143.04" x="479.04"/>
    <rect id="rect6818" height="9" width="9" y="130.04" x="488.04"/>
    <rect id="rect6820" height="9" width="9" y="134.04" x="497.04"/>
    <rect id="rect6822" height="9" width="9" y="143.04" x="488.04"/>
    <rect id="rect6824" height="9" width="9" y="143.04" x="497.04"/>
   </g>
   <g id="g6826" transform="matrix(1.2432427,0,0,1.2432427,-128.42206,-32.605342)">
    <rect id="rect6828" height="9" width="9" y="116.04" x="533.04" fill="#F30"/>
    <rect id="rect6830" height="9" width="9" y="116.04" x="515.04" fill="#F00"/>
    <rect id="rect6832" height="9" width="9" y="116.04" x="524.04" fill="#ff1900"/>
    <rect id="rect6834" height="9" width="9" y="125.04" x="515.04" fill="#F00"/>
    <rect id="rect6836" height="9" width="9" y="134.04" x="515.04" fill="#F00"/>
    <rect id="rect6838" height="9" width="9" y="143.04" x="515.04" fill="#F00"/>
    <rect id="rect6840" height="9" width="9" y="134.04" x="524.04" fill="#ff1900"/>
   </g>
   <g id="g6842" transform="matrix(1.2432427,0,0,1.2432427,-127.77342,-32.605342)">
    <rect id="rect6844" height="9" width="9" y="143.04" x="546.54" fill="#ff4c00"/>
    <rect id="rect6846" height="9" width="9" y="134.04" x="546.54" fill="#ff4c00"/>
    <rect id="rect6848" height="9" width="9" y="125.04" x="546.54" fill="#ff4c00"/>
    <path id="path6850" style="baseline-shift:baseline;block-progression:tb;color:#000000;direction:ltr;text-indent:0;text-align:start;enable-background:accumulate;text-transform:none;" d="m547.51,116.04c-0.53618,0-0.97059,0.43441-0.97059,0.97059v7.0588c0,0.53618,0.43441,0.97059,0.97059,0.97059h7.0588c0.53618,0,0.97059-0.43441,0.97059-0.97059v-7.0588c0-0.53618-0.43441-0.97059-0.97059-0.97059z" fill-rule="nonzero" stroke-width="1" fill="#FFF"/>
    <rect id="rect6852" height="9" width="9" y="116.04" x="546.54" fill="#ff4c00"/>
    <rect id="rect6854" height="9" width="9" y="116.04" x="555.54" fill="#F60"/>
    <rect id="rect6856" height="9" width="9" y="116.04" x="564.54" fill="#ff7f00"/>
    <path id="path6858" style="baseline-shift:baseline;block-progression:tb;color:#000000;direction:ltr;text-indent:0;text-align:start;enable-background:accumulate;text-transform:none;" d="m565.51,125.04c-0.53618,0-0.97059,0.43441-0.97059,0.97059v7.0588c0,0.53618,0.43441,0.97059,0.97059,0.97059h7.0588c0.53618,0,0.97059-0.43441,0.97059-0.97059v-7.0588c0-0.53618-0.43441-0.97059-0.97059-0.97059z" fill-rule="nonzero" stroke-width="1" fill="#FFF"/>
    <path id="path6860" style="baseline-shift:baseline;block-progression:tb;color:#000000;direction:ltr;text-indent:0;text-align:start;enable-background:accumulate;text-transform:none;" d="m565.85,125.48c-0.48414,0-0.87639,0.39225-0.87639,0.87639v6.3737c0,0.48414,0.39225,0.87639,0.87639,0.87639h6.3737c0.48414,0,0.87639-0.39225,0.87639-0.87639v-6.3737c0-0.48414-0.39225-0.87639-0.87639-0.87639z" fill-rule="nonzero" stroke-width="1" fill="#FFF"/>
    <path id="path6862" style="baseline-shift:baseline;block-progression:tb;color:#000000;direction:ltr;text-indent:0;text-align:start;enable-background:accumulate;text-transform:none;" d="m565.51,134.04c-0.53618,0-0.97059,0.43441-0.97059,0.97059v7.0588c0,0.53618,0.43441,0.97059,0.97059,0.97059h7.0588c0.53618,0,0.97059-0.43441,0.97059-0.97059v-7.0588c0-0.53618-0.43441-0.97059-0.97059-0.97059z" fill-rule="nonzero" stroke-width="1" fill="#FFF"/>
    <rect id="rect6864" height="9" width="9" y="143.04" x="564.54" fill="#ff7f00"/>
    <rect id="rect6866" height="9" width="9" y="134.04" x="564.54" fill="#ff7f00"/>
    <rect id="rect6868" height="9" width="9" y="143.04" x="555.54" fill="#F60"/>
    <rect id="rect6870" height="9" width="9" y="125.04" x="564.54" fill="#ff7f00"/>
   </g>
   <g id="g6872" transform="translate(73.108008,73.249017)">
    <rect id="rect6874" height="9" width="9" y="74.292" x="518.29" fill="#F90"/>
    <rect id="rect6876" height="9" width="9" y="65.292" x="527.29" fill="#ffb200"/>
    <rect id="rect6878" height="9" width="9" y="47.292" x="527.29" fill="#ffb200"/>
    <rect id="rect6880" height="9" width="9" y="38.292" x="518.29" fill="#F90"/>
    <rect id="rect6882" height="9" width="9" y="38.292" x="554.29" fill="#FF0"/>
    <rect id="rect6884" height="9" width="9" y="47.292" x="545.29" fill="#ffe500"/>
    <rect id="rect6886" height="9" width="9" y="65.292" x="545.29" fill="#ffe500"/>
    <rect id="rect6888" height="9" width="9" y="74.292" x="554.29" fill="#FF0"/>
    <rect id="rect6890" height="9" width="9" y="56.292" x="536.29" fill="#FC0"/>
   </g>
  </g>
 </g>
</svg>
