<?xml version="1.0" encoding="UTF-8" standalone="no"?>
<!-- Created with Inkscape (http://www.inkscape.org/) -->

<svg
   xmlns:dc="http://purl.org/dc/elements/1.1/"
   xmlns:cc="http://creativecommons.org/ns#"
   xmlns:rdf="http://www.w3.org/1999/02/22-rdf-syntax-ns#"
   xmlns:svg="http://www.w3.org/2000/svg"
   xmlns="http://www.w3.org/2000/svg"
   version="1.1"
   width="45.998871"
   height="46"
   id="svg5412">
  <defs
     id="defs5414" />
  <metadata
     id="metadata5417">
    <rdf:RDF>
      <cc:Work
         rdf:about="">
        <dc:format>image/svg+xml</dc:format>
        <dc:type
           rdf:resource="http://purl.org/dc/dcmitype/StillImage" />
        <dc:title></dc:title>
      </cc:Work>
    </rdf:RDF>
  </metadata>
  <g
     transform="translate(0,-1006.3622)"
     id="layer1">
    <path
       d="m 23.00001,1050.8401 c -11.70465,0 -21.22715,-9.6352 -21.22715,-21.4782 0,-11.8425 9.5225,-21.4776 21.22715,-21.4776 11.70294,0 21.226,9.6351 21.226,21.4776 0,11.843 -9.52306,21.4782 -21.226,21.4782 z"
       id="path3258"
       style="fill:#000000;fill-opacity:1" />
    <path
       d="m 10.00509,1047.5871 c -26.20712,-23.4733 48.41707,-25.5141 28.07883,-2.1821 -7.14052,8.343 -19.73747,9.3212 -28.07883,2.1821 z"
       id="path3260"
       style="fill:#333333;fill-opacity:1" />
    <path
       d="m 22.99944,1009.1169 c 11.16342,0 20.24416,9.0819 20.24416,20.2447 0,11.164 -9.08074,20.2459 -20.24416,20.2459 -11.16344,0 -20.24473,-9.0819 -20.24473,-20.2459 0,-11.1628 9.08129,-20.2447 20.24473,-20.2447 m 0,-2.7547 c -12.7023,0 -22.99944,10.2971 -22.99944,23 0,12.7029 10.29714,23 22.99944,23 12.70285,0 22.99943,-10.2971 22.99943,-23 -9e-4,-12.7029 -10.29715,-23 -22.99943,-23 l 0,0 z"
       id="path3264"
       style="fill:#000000;fill-opacity:1" />
    <path
       d="m 15.095576,1037.5545 3.807718,3.8077 12,-12 -12,-12 -3.807718,3.8077 8.192282,8.193 z"
       id="path6"
       style="fill:#ffffff" />
  </g>
</svg>
