<?xml version="1.0" encoding="UTF-8" standalone="no"?>
<svg
   xmlns:dc="http://purl.org/dc/elements/1.1/"
   xmlns:cc="http://creativecommons.org/ns#"
   xmlns:rdf="http://www.w3.org/1999/02/22-rdf-syntax-ns#"
   xmlns:svg="http://www.w3.org/2000/svg"
   xmlns="http://www.w3.org/2000/svg"
   version="1.1"
   id="svg5509"
   viewBox="0 0 45.998869 46.000001"
   height="12.982223mm"
   width="12.981903mm">
  <defs
     id="defs5511" />
  <metadata
     id="metadata5514">
    <rdf:RDF>
      <cc:Work
         rdf:about="">
        <dc:format>image/svg+xml</dc:format>
        <dc:type
           rdf:resource="http://purl.org/dc/dcmitype/StillImage" />
        <dc:title></dc:title>
      </cc:Work>
    </rdf:RDF>
  </metadata>
  <g
     transform="translate(-277.00058,-692.21935)"
     id="layer1">
    <g
       id="g5477"
       transform="translate(-352.73517,-313.15865)">
      <path
         d="m 652.73576,1049.8559 c -11.70465,0 -21.22715,-9.6352 -21.22715,-21.4782 0,-11.8425 9.5225,-21.4777 21.22715,-21.4777 11.70294,0 21.226,9.6352 21.226,21.4777 0,11.843 -9.52306,21.4782 -21.226,21.4782 z"
         id="path3651"
         style="fill:#00dc00;fill-opacity:1" />
      <path
         style="fill:#00b400;fill-opacity:1"
         id="path3653"
         d="m 639.74084,1046.6028 c -26.20712,-23.4732 48.41707,-25.5141 28.07883,-2.182 -7.14052,8.3429 -19.73747,9.3212 -28.07883,2.182 z" />
      <path
         style="fill:#000000;fill-opacity:1"
         id="path3655"
         d="m 652.73519,1008.1327 c 11.16342,0 20.24416,9.0818 20.24416,20.2447 0,11.164 -9.08074,20.2459 -20.24416,20.2459 -11.16344,0 -20.24473,-9.0819 -20.24473,-20.2459 0,-11.1629 9.08129,-20.2447 20.24473,-20.2447 m 0,-2.7547 c -12.7023,0 -22.99944,10.2971 -22.99944,23 0,12.7028 10.29714,23 22.99944,23 12.70285,0 22.99943,-10.2972 22.99943,-23 -9e-4,-12.7029 -10.29715,-23 -22.99943,-23 l 0,0 z" />
      <path
         id="path5468"
         d="m 660.77089,1020.3423 0,-3.2143 -16.07142,0 0,3.2143 -4.82141,0 0,3.2142 c 0,2.6627 2.15839,4.8215 4.82141,4.8215 0.50424,0 0.99001,-0.078 1.44683,-0.221 1.15955,1.6578 2.92822,2.8575 4.98174,3.2745 l 0,4.9822 -1.60714,0 c -1.77509,0 -3.21429,1.4392 -3.21429,3.2143 l 12.85713,0 c 0,-1.7751 -1.43919,-3.2143 -3.21428,-3.2143 l -1.60714,0 0,-4.9822 c 2.05352,-0.417 3.82218,-1.6167 4.98174,-3.2745 0.45683,0.1434 0.94258,0.221 1.44682,0.221 2.66304,0 4.82143,-2.1588 4.82143,-4.8215 l 0,-3.2142 -4.82143,0 z m -16.07142,6.1272 c -1.60632,0 -2.91294,-1.3066 -2.91294,-2.913 l 0,-1.6071 2.91294,0 0,1.6071 c 0,1.0093 0.18643,1.9748 0.52634,2.8644 -0.17075,0.031 -0.34634,0.049 -0.52634,0.049 z m 18.98437,-2.913 c 0,1.6064 -1.30661,2.913 -2.91295,2.913 -0.17959,0 -0.35559,-0.017 -0.52634,-0.049 0.33951,-0.89 0.52634,-1.8555 0.52634,-2.8644 l 0,-1.6071 2.91295,0 0,1.6071 z"
         style="fill:#ffffff" />
    </g>
  </g>
</svg>
