<?xml version="1.0" encoding="UTF-8" standalone="no"?>
<!-- Created with Inkscape (http://www.inkscape.org/) -->
<svg id="svg5412" xmlns:rdf="http://www.w3.org/1999/02/22-rdf-syntax-ns#" xmlns="http://www.w3.org/2000/svg" height="46" width="45.999" version="1.1" xmlns:cc="http://creativecommons.org/ns#" xmlns:dc="http://purl.org/dc/elements/1.1/">
 <metadata id="metadata5417">
  <rdf:RDF>
   <cc:Work rdf:about="">
    <dc:format>image/svg+xml</dc:format>
    <dc:type rdf:resource="http://purl.org/dc/dcmitype/StillImage"/>
    <dc:title/>
   </cc:Work>
  </rdf:RDF>
 </metadata>
 <g id="layer1" transform="translate(0,-1006.3622)">
  <path id="path3181" d="m22.999,1050.8c11.808,0,21.415-9.6071,21.415-21.416,0-11.808-9.6066-21.415-21.415-21.415-11.806,0-21.414,9.6072-21.414,21.415,0,11.809,9.6072,21.416,21.414,21.416z" fill="#00dc00"/>
  <path id="path3183" d="m10.005,1047.6c-26.207-23.473,48.417-25.514,28.079-2.182-7.1405,8.3429-19.737,9.3212-28.079,2.182z" fill="#00b400"/>
  <path id="path3187" d="m22.999,1009.1c-11.163,0-20.244,9.0819-20.244,20.245,0,11.164,9.0807,20.246,20.244,20.246s20.245-9.0819,20.245-20.246c0-11.163-9.0813-20.245-20.245-20.245m0-2.7547c12.702,0,22.999,10.297,22.999,23s-10.297,23-22.999,23c-12.703,0-22.999-10.297-22.999-23,0.000898-12.703,10.297-23,22.999-23z" fill="#000"/>
  <g id="g2997" fill="#FFF" transform="matrix(0.42048264,0,0,0.42048264,-1.2114057,598.59593)">
   <path id="path4-7" d="m79.206,1050.1c-0.768,0-1.535-0.293-2.121-0.879-1.172-1.172-1.172-3.071,0-4.243,5.477-5.478,8.494-12.76,8.494-20.506s-3.017-15.029-8.494-20.506c-1.172-1.172-1.172-3.071,0-4.243s3.071-1.171,4.243,0c6.611,6.611,10.251,15.4,10.251,24.749s-3.641,18.138-10.251,24.749c-0.586,0.586-1.353,0.879-2.121,0.879zm-10.656-5.656c-0.768,0-1.535-0.293-2.121-0.879-1.172-1.172-1.172-3.071,0-4.243,8.188-8.188,8.188-21.511,0-29.698-1.172-1.172-1.172-3.071,0-4.243s3.071-1.171,4.243,0c5.1,5.099,7.908,11.88,7.908,19.092s-2.809,13.992-7.908,19.092c-0.586,0.586-1.353,0.879-2.121,0.879zm-10.657-5.657c-0.768,0-1.535-0.293-2.121-0.879-1.172-1.172-1.172-3.071,0-4.242,5.069-5.069,5.069-13.316,0-18.385-1.172-1.172-1.172-3.071,0-4.243s3.071-1.172,4.243,0c7.408,7.408,7.408,19.462,0,26.87-0.586,0.586-1.353,0.878-2.121,0.878z"/>
   <path id="path6-2" d="m49.579,1052.5c-0.52,0-1.032-0.203-1.415-0.586l-15.414-15.414h-7.172c-1.105,0-2-0.895-2-2v-20c0-1.105,0.895-2,2-2h7.172l15.414-15.414c0.572-0.572,1.432-0.743,2.18-0.434s1.235,1.039,1.235,1.848v52c0,0.809-0.487,1.538-1.235,1.848-0.247,0.102-0.507,0.152-0.765,0.152z"/>
  </g>
 </g>
</svg>
