<?xml version="1.0" encoding="UTF-8" standalone="no"?>
<!-- Created with Inkscape (http://www.inkscape.org/) -->
<svg id="svg5412" xmlns:rdf="http://www.w3.org/1999/02/22-rdf-syntax-ns#" xmlns="http://www.w3.org/2000/svg" height="46" width="45.999" version="1.1" xmlns:cc="http://creativecommons.org/ns#" xmlns:dc="http://purl.org/dc/elements/1.1/">
 <metadata id="metadata5417">
  <rdf:RDF>
   <cc:Work rdf:about="">
    <dc:format>image/svg+xml</dc:format>
    <dc:type rdf:resource="http://purl.org/dc/dcmitype/StillImage"/>
    <dc:title/>
   </cc:Work>
  </rdf:RDF>
 </metadata>
 <g id="layer1" transform="translate(0,-1006.3622)">
  <g id="g3286" transform="translate(-174.38942,586.36177)">
   <path id="path3288" fill="#000" d="m183.29,459.35c-8.9105-7.7159-9.9549-21.328-2.3283-30.344,7.6262-9.0153,21.08-10.073,29.991-2.3568,8.9092,7.7148,9.9541,21.328,2.3278,30.343-7.6266,9.0157-21.081,10.073-29.99,2.358z"/>
   <path id="path3290" fill="#333" d="m184.4,461.23c-26.207-23.473,48.417-25.514,28.079-2.1821-7.1405,8.343-19.737,9.3212-28.079,2.1821z"/>
   <path id="path3292" fill="#000" d="m210.55,427.62c8.4812,7.2589,9.4748,20.063,2.2163,28.544-7.2592,8.4817-20.064,9.4768-28.545,2.218-8.4812-7.2589-9.4752-20.064-2.216-28.545,7.2585-8.4808,20.063-9.4756,28.544-2.2167m1.7912-2.0928c-9.6504-8.2595-24.169-7.132-32.429,2.5188-8.2598,9.6508-7.1323,24.169,2.518,32.429,9.6508,8.2598,24.169,7.132,32.429-2.5188,8.2592-9.6514,7.1323-24.169-2.518-32.429z"/>
   <g id="g3294" transform="matrix(-1,0,0,1,592.64515,3.1370746)">
    <path id="path3296" d="m394.43,439.06,1.91-1.1036c0.92341-0.53325,2.434-1.4058,3.357-1.9391l1.5226-0.87975c1.0393-0.6005,1.0879-1.758-0.002-2.3867l-1.522-0.87821c-0.92335-0.53282-2.4344-1.4049-3.358-1.9377l-1.9105-1.1026c-0.9237-0.53282-1.6786-0.0967-1.6784,0.96955l0.00052,2.2064c0.00019,1.0661,0.00079,2.8107,0.00082,3.8768l0.00066,2.2058c0.00017,1.0665,0.7558,1.5023,1.6788,0.96904z" fill="#FFF"/>
    <g id="g3298">
     <path id="path3300" stroke="#FFF" stroke-width="2.44713116" fill="none" d="m403.41,441.74c0,4.505-3.6521,8.1571-8.1571,8.1571s-8.1571-3.652-8.1571-8.1571c0-4.505,3.652-8.1571,8.1571-8.1571"/>
    </g>
   </g>
  </g>
 </g>
</svg>
