<?xml version="1.0" encoding="UTF-8" standalone="no"?>
<!-- Created with Inkscape (http://www.inkscape.org/) -->
<svg id="svg5412" xmlns:rdf="http://www.w3.org/1999/02/22-rdf-syntax-ns#" xmlns="http://www.w3.org/2000/svg" height="46" width="45.999" version="1.1" xmlns:cc="http://creativecommons.org/ns#" xmlns:dc="http://purl.org/dc/elements/1.1/">
 <metadata id="metadata5417">
  <rdf:RDF>
   <cc:Work rdf:about="">
    <dc:format>image/svg+xml</dc:format>
    <dc:type rdf:resource="http://purl.org/dc/dcmitype/StillImage"/>
    <dc:title/>
   </cc:Work>
  </rdf:RDF>
 </metadata>
 <g id="layer1" transform="translate(0,-1006.3622)">
  <path id="path3181" d="m22.999,1050.8c11.808,0,21.415-9.6071,21.415-21.416,0-11.808-9.6066-21.415-21.415-21.415-11.806,0-21.414,9.6072-21.414,21.415,0,11.809,9.6072,21.416,21.414,21.416z" fill="#00dc00"/>
  <path id="path3183" d="m10.005,1047.6c-26.207-23.473,48.417-25.514,28.079-2.182-7.1405,8.3429-19.737,9.3212-28.079,2.182z" fill="#00b400"/>
  <path id="path3187" d="m22.999,1009.1c-11.163,0-20.244,9.0819-20.244,20.245,0,11.164,9.0807,20.246,20.244,20.246s20.245-9.0819,20.245-20.246c0-11.163-9.0813-20.245-20.245-20.245m0-2.7547c12.702,0,22.999,10.297,22.999,23s-10.297,23-22.999,23c-12.703,0-22.999-10.297-22.999-23,0.000898-12.703,10.297-23,22.999-23z" fill="#000"/>
  <g id="text3068" style="letter-spacing:0px;word-spacing:0px;" font-weight="normal" transform="translate(-12.506481,-1.12545)" font-size="40px" font-style="normal" font-family="Sans" line-height="125%" fill="#000">
   <path id="path3073" fill="#FFF" d="m33.288,1020.5c-0.000003-0.4791,0.17187-0.8958,0.51562-1.25,0.35416-0.3541,0.77604-0.5312,1.2656-0.5312,0.47916,0,0.89062,0.1771,1.2344,0.5312,0.35416,0.3542,0.53124,0.7709,0.53125,1.25-0.000007,0.4897-0.17188,0.9063-0.51562,1.25-0.34376,0.3438-0.76042,0.5157-1.25,0.5157-0.48959,0-0.91146-0.1719-1.2656-0.5157-0.34375-0.3437-0.51563-0.7603-0.51562-1.25m3.6719,20.109,2.7188,0,0,1.6563-8.3438,0,0-1.6563,2.75,0,0-13.281-2.75,0,0-1.6719,5.625,0,0,14.953"/>
  </g>
 </g>
</svg>
