<?xml version="1.0" encoding="UTF-8" standalone="no"?>
<!-- Created with Inkscape (http://www.inkscape.org/) -->
<svg id="svg2" xmlns:rdf="http://www.w3.org/1999/02/22-rdf-syntax-ns#" xmlns="http://www.w3.org/2000/svg" height="32" width="39.394" version="1.1" xmlns:cc="http://creativecommons.org/ns#" xmlns:dc="http://purl.org/dc/elements/1.1/">
 <metadata id="metadata10">
  <rdf:RDF>
   <cc:Work rdf:about="">
    <dc:format>image/svg+xml</dc:format>
    <dc:type rdf:resource="http://purl.org/dc/dcmitype/StillImage"/>
    <dc:title/>
   </cc:Work>
  </rdf:RDF>
 </metadata>
 <path id="path4" fill="#FFF" d="m39.394,3.7905q-1.6455,2.4476-4.0375,4.1729,0.02362,0.46272,0.02362,1.046,0,3.2407-0.94496,6.4893t-2.8869,6.219-4.6264,5.263q-2.6844,2.2926-6.4537,3.656-3.769,1.363-8.079,1.363-6.7267,0-12.389-3.632,1.005,0.11184,1.9277,0.11184,5.6194,0,10.038-3.4617-2.6201-0.048-4.6929-1.6131-2.0729-1.565-2.853-3.9996,0.7711,0.14688,1.5221,0.14688,1.081,0,2.1274-0.28199-2.7964-0.559-4.6395-2.785-1.843-2.225-1.843-5.136v-0.10004q1.7163,0.95,3.6613,1.011-1.6564-1.105-2.6265-2.8805-0.9702-1.7757-0.9702-3.8432,0-2.1806,1.0928-4.061,3.0407,3.7314,7.3689,5.9645,4.3283,2.2332,9.2868,2.4804-0.21149-0.88137-0.21187-1.8395,0-3.3455,2.3678-5.7131,2.368-2.3676,5.713-2.3676,3.5026,0,5.9005,2.5508,2.7398-0.54269,5.1307-1.9632-0.92112,2.8989-3.5499,4.4726,2.4161-0.2871,4.6428-1.2697z"/>
</svg>
